<svg xmlns="http://www.w3.org/2000/svg" viewBox="0 0 512 512">
  <defs>
    <linearGradient id="bg" x1="0%" y1="0%" x2="100%" y2="100%">
      <stop offset="0%" style="stop-color:#2563eb;stop-opacity:1" />
      <stop offset="100%" style="stop-color:#1e40af;stop-opacity:1" />
    </linearGradient>
  </defs>
  <!-- Safe area for maskable icons (80% of total) -->
  <rect width="512" height="512" fill="url(#bg)"/>
  <!-- Building/Property Icon - centered in safe area -->
  <g fill="white" transform="translate(51.2, 51.2) scale(0.8)">
    <!-- Main building -->
    <rect x="128" y="160" width="256" height="288" rx="8"/>
    <!-- Roof -->
    <polygon points="112,160 256,80 400,160 384,160 256,96 128,160"/>
    <!-- Windows -->
    <rect x="160" y="200" width="32" height="32" rx="4"/>
    <rect x="208" y="200" width="32" height="32" rx="4"/>
    <rect x="272" y="200" width="32" height="32" rx="4"/>
    <rect x="320" y="200" width="32" height="32" rx="4"/>
    
    <rect x="160" y="256" width="32" height="32" rx="4"/>
    <rect x="208" y="256" width="32" height="32" rx="4"/>
    <rect x="272" y="256" width="32" height="32" rx="4"/>
    <rect x="320" y="256" width="32" height="32" rx="4"/>
    
    <rect x="160" y="312" width="32" height="32" rx="4"/>
    <rect x="208" y="312" width="32" height="32" rx="4"/>
    <rect x="272" y="312" width="32" height="32" rx="4"/>
    <rect x="320" y="312" width="32" height="32" rx="4"/>
    
    <!-- Door -->
    <rect x="232" y="368" width="48" height="80" rx="4"/>
    <circle cx="268" cy="408" r="3"/>
  </g>
</svg>