<svg xmlns="http://www.w3.org/2000/svg" viewBox="0 0 32 32">
  <rect width="32" height="32" rx="6" fill="#2563eb"/>
  <g fill="white">
    <rect x="8" y="10" width="16" height="18" rx="1"/>
    <polygon points="6,10 16,5 26,10 25,10 16,6 7,10"/>
    <rect x="10" y="12" width="2" height="2" rx="0.5"/>
    <rect x="13" y="12" width="2" height="2" rx="0.5"/>
    <rect x="17" y="12" width="2" height="2" rx="0.5"/>
    <rect x="20" y="12" width="2" height="2" rx="0.5"/>
    <rect x="10" y="16" width="2" height="2" rx="0.5"/>
    <rect x="13" y="16" width="2" height="2" rx="0.5"/>
    <rect x="17" y="16" width="2" height="2" rx="0.5"/>
    <rect x="20" y="16" width="2" height="2" rx="0.5"/>
    <rect x="10" y="20" width="2" height="2" rx="0.5"/>
    <rect x="13" y="20" width="2" height="2" rx="0.5"/>
    <rect x="17" y="20" width="2" height="2" rx="0.5"/>
    <rect x="20" y="20" width="2" height="2" rx="0.5"/>
    <rect x="14.5" y="23" width="3" height="5" rx="0.5"/>
    <circle cx="16.5" cy="25.5" r="0.5"/>
  </g>
</svg>